<svg width="31" height="24" viewBox="0 0 31 24" fill="none" xmlns="http://www.w3.org/2000/svg">
<g clip-path="url(#clip0_80_442)">
<path fill-rule="evenodd" clip-rule="evenodd" d="M10.5283 19.239C10.5379 20.5698 9.75348 21.7749 8.54179 22.2911C7.3301 22.8071 5.93062 22.532 4.9977 21.5943C4.0648 20.6568 3.78282 19.242 4.28362 18.0116C4.78442 16.781 5.96905 15.978 7.28357 15.978C8.14099 15.9749 8.96453 16.3166 9.57304 16.9281C10.1816 17.5397 10.5252 18.371 10.5283 19.239Z" stroke="#082F22" stroke-width="2" stroke-linecap="round" stroke-linejoin="round"/>
<path fill-rule="evenodd" clip-rule="evenodd" d="M25.9876 19.239C25.9971 20.5698 25.2127 21.7749 24.001 22.2911C22.7894 22.8071 21.3898 22.532 20.4569 21.5943C19.5241 20.6568 19.242 19.242 19.7429 18.0116C20.2436 16.781 21.4283 15.978 22.7427 15.978C23.6002 15.9749 24.4237 16.3166 25.0322 16.9281C25.6408 17.5397 25.9844 18.371 25.9876 19.239Z" stroke="#082F22" stroke-width="2" stroke-linecap="round" stroke-linejoin="round"/>
<path d="M19.1173 20.364C19.7467 20.364 20.257 19.8605 20.257 19.239C20.257 18.6177 19.7467 18.114 19.1173 18.114V20.364ZM10.5239 18.114C9.89447 18.114 9.3842 18.6177 9.3842 19.239C9.3842 19.8605 9.89447 20.364 10.5239 20.364V18.114ZM17.9776 19.239C17.9776 19.8605 18.4879 20.364 19.1173 20.364C19.7467 20.364 20.257 19.8605 20.257 19.239H17.9776ZM20.257 11.3385C20.257 10.7172 19.7467 10.2135 19.1173 10.2135C18.4879 10.2135 17.9776 10.7172 17.9776 11.3385H20.257ZM19.1173 18.114C18.4879 18.114 17.9776 18.6177 17.9776 19.239C17.9776 19.8605 18.4879 20.364 19.1173 20.364V18.114ZM19.4966 20.364C20.126 20.364 20.6363 19.8605 20.6363 19.239C20.6363 18.6177 20.126 18.114 19.4966 18.114V20.364ZM25.9811 18.1141C25.3516 18.1168 24.8436 18.6227 24.8464 19.2439C24.8491 19.8652 25.3617 20.3668 25.9911 20.364L25.9811 18.1141ZM29.4234 15.7275L30.5631 15.7224C30.5628 15.6576 30.5569 15.5931 30.5453 15.5293L29.4234 15.7275ZM29.7497 11.1404C29.6388 10.5288 29.0467 10.1217 28.427 10.2312C27.8075 10.3406 27.3951 10.9251 27.506 11.5368L29.7497 11.1404ZM19.1158 3.19058C18.4863 3.19058 17.9761 3.69425 17.9761 4.31558C17.9761 4.93689 18.4863 5.44058 19.1158 5.44058V3.19058ZM24.5549 4.31558V5.44058C24.5625 5.44058 24.5702 5.4405 24.578 5.44034L24.5549 4.31558ZM27.9907 7.82708L26.8515 7.79504C26.8492 7.87206 26.855 7.9491 26.8688 8.02494L27.9907 7.82708ZM27.5043 11.5365C27.6151 12.1481 28.2071 12.5553 28.8268 12.4461C29.4464 12.3368 29.8603 11.7521 29.7497 11.1404L27.5043 11.5365ZM20.254 4.31558C20.254 3.69425 19.7453 3.19058 19.1158 3.19058C18.4863 3.19058 17.9761 3.69425 17.9761 4.31558H20.254ZM17.9745 11.3385C17.9745 11.96 18.4848 12.4635 19.1143 12.4635C19.7438 12.4635 20.254 11.96 20.254 11.3385H17.9745ZM17.9761 4.31558C17.9761 4.93689 18.4863 5.44058 19.1158 5.44058C19.7453 5.44058 20.254 4.93689 20.254 4.31558H17.9761ZM19.1143 3.11558H20.2541L20.254 3.10751L19.1143 3.11558ZM17.4963 1.50008V2.62509L17.5039 2.62505L17.4963 1.50008ZM2.89505 1.50008L2.88423 2.62508H2.89505V1.50008ZM1.27269 3.11258L0.13298 3.10251V3.11258H1.27269ZM1.27269 17.625H0.132935L0.133026 17.6352L1.27269 17.625ZM2.89505 19.2375V18.1125L2.88423 18.1126L2.89505 19.2375ZM4.03887 20.3625C4.66831 20.3625 5.17858 19.859 5.17858 19.2375C5.17858 18.6162 4.66831 18.1125 4.03887 18.1125V20.3625ZM19.1173 10.2135C18.4879 10.2135 17.9776 10.7172 17.9776 11.3385C17.9776 11.96 18.4879 12.4635 19.1173 12.4635V10.2135ZM28.6293 12.4635C29.2587 12.4635 29.769 11.96 29.769 11.3385C29.769 10.7172 29.2587 10.2135 28.6293 10.2135V12.4635ZM19.1173 18.114H10.5239V20.364H19.1173V18.114ZM20.257 19.239V11.3385H17.9776V19.239H20.257ZM19.1173 20.364H19.4966V18.114H19.1173V20.364ZM25.9911 20.364C27.2188 20.3587 28.3878 19.8596 29.2429 18.986L27.6037 17.4225C27.1694 17.8662 26.5851 18.1114 25.9811 18.1141L25.9911 20.364ZM29.2429 18.986C30.0971 18.1134 30.5688 16.9389 30.5631 15.7224L28.2837 15.7327C28.2868 16.3705 28.0389 16.9779 27.6037 17.4225L29.2429 18.986ZM30.5453 15.5293L29.7497 11.1404L27.506 11.5368L28.3015 15.9258L30.5453 15.5293ZM19.1158 5.44058H24.5549V3.19058H19.1158V5.44058ZM24.578 5.44034C25.1785 5.42832 25.7641 5.66565 26.1964 6.10737L27.8359 4.54427C26.9696 3.65883 25.7759 3.1659 24.5317 3.1908L24.578 5.44034ZM26.1964 6.10737C26.6296 6.55019 26.8697 7.15973 26.8515 7.79504L29.13 7.8591C29.1655 6.62712 28.7012 5.42861 27.8359 4.54427L26.1964 6.10737ZM26.8688 8.02494L27.5043 11.5365L29.7497 11.1404L29.1127 7.6292L26.8688 8.02494ZM17.9761 4.31558L17.9745 11.3385H20.254V4.31558H17.9761ZM20.254 4.31558L20.2541 3.11558H17.9745L17.9761 4.31558H20.254ZM20.254 3.10751C20.2432 1.61516 19.0323 0.364966 17.4889 0.375091L17.5039 2.62505C17.7351 2.62353 17.9724 2.81945 17.9747 3.12363L20.254 3.10751ZM17.4963 0.375076H2.89505V2.62508L17.4963 2.62509V0.375076ZM2.90588 0.375121C2.1678 0.368206 1.46309 0.658755 0.945317 1.17338L2.56265 2.75888C2.6534 2.66868 2.76961 2.62401 2.88423 2.62508L2.90588 0.375121ZM0.945317 1.17338C0.428529 1.68702 0.139515 2.38154 0.13298 3.10251L2.41235 3.12263C2.41364 2.98031 2.47093 2.85005 2.56265 2.75888L0.945317 1.17338ZM0.13298 3.11258L0.132935 17.625H2.41239V3.11258H0.13298ZM0.133026 17.6352C0.13956 18.3561 0.428529 19.0506 0.945317 19.5642L2.56265 17.9787C2.47093 17.8876 2.41364 17.7573 2.41235 17.615L0.133026 17.6352ZM0.945317 19.5642C1.46309 20.0789 2.1678 20.3694 2.90588 20.3625L2.88423 18.1126C2.76961 18.1137 2.6534 18.069 2.56265 17.9787L0.945317 19.5642ZM2.89505 20.3625H4.03887V18.1125H2.89505V20.3625ZM19.1173 12.4635H28.6293V10.2135H19.1173V12.4635Z" fill="#082F22"/>
</g>
<defs>
<clipPath id="clip0_80_442">
<rect width="31" height="24" fill="white"/>
</clipPath>
</defs>
</svg>
